<?xml version="1.0" encoding="utf-8"?>
<!-- Generator: Adobe Illustrator 18.1.1, SVG Export Plug-In . SVG Version: 6.00 Build 0)  -->
<svg version="1.1" id="Layer_1" xmlns="http://www.w3.org/2000/svg" xmlns:xlink="http://www.w3.org/1999/xlink" x="0px" y="0px"
	 viewBox="0 0 850 210" enable-background="new 0 0 850 210" xml:space="preserve">
<g>
	<g>
		<path fill="#FFFFFF" d="M795,137.2c-1.9,0-3.8,0-6,0c0-3.5,0-6.9,0-10.3c-0.3-0.2-0.6-0.3-0.8-0.5c-0.1,0.3-0.1,0.7-0.2,1
			c-9.6,13.5-28.6,14.6-39.9,6.2c-5.7-4.2-8.7-10.1-10.2-16.9c-2-9.2-1.9-18.2,2.2-26.9c5.2-11.1,14.3-16.6,26.2-17.7
			c7.3-0.7,14,1.3,20.3,4.7c0.6,0.3,1.3,0.6,2.2,1.1c0-11.1,0-21.9,0-32.9c2.2,0,4.2,0,6.2,0C795,75.8,795,106.5,795,137.2z
			 M788.7,99.5c0,0,0.1,0,0.1,0c0-4.4,0-8.9,0-13.3c0-0.7-0.5-1.7-1-2.1c-6-5-13.1-6.7-20.7-6.2c-10.8,0.7-18.7,6.8-22.1,17.2
			c-2.4,7.3-2.2,14.7-0.1,22.1c2.7,9.6,9.1,14.9,19,15.9c12.2,1.2,23.5-7.3,24.8-19.2C789.2,109.1,788.7,104.3,788.7,99.5z"/>
		<path fill="#FFFFFF" d="M213.3,73.7c1.8,0,3.5,0,5.5,0c0.2,3.6,0.4,7.2,0.6,11.1c0.4-0.4,0.6-0.6,0.8-0.9
			c5.4-8.4,13.3-11.9,23.1-11.9c14.9,0.1,24.5,9.6,27.2,24c1.6,8.6,1.5,17.1-2.3,25.1c-5.3,11.2-14.5,16.7-26.7,17.7
			c-6.9,0.5-13.4-1-19.5-4.2c-0.8-0.4-1.7-0.8-2.8-1.3c0,10.6,0,20.9,0,31.4c-2.1,0-4,0-6.1,0C213.3,134.4,213.3,104.2,213.3,73.7z
			 M219.1,112.5c0.1,0,0.2,0,0.3,0c0,4-0.1,8.1,0.1,12.1c0,0.8,0.5,1.8,1.1,2.2c5.4,4.2,11.7,6,18.4,6.2c12.1,0.4,22.2-7.2,25-19
			c1.8-7.9,1.2-15.8-1.8-23.4c-1.6-4-4.1-7.4-7.9-9.7c-12.8-7.7-30.6-1.9-34.1,16.1C219.2,102.1,219.4,107.4,219.1,112.5z"/>
		<path fill="#FFFFFF" d="M524.1,45.1c2.1,0,4,0,6,0c0,13.1,0,26.1,0,39.3c2.1-2.3,3.8-4.6,5.9-6.5c5.1-4.5,11.3-6.1,18-5.9
			c15.2,0.4,25.2,9.4,27.5,24.8c1,6.9,1.2,13.8-1.1,20.6c-4,11.7-12.6,18.1-24.4,20.5c-10.3,2.1-20.5,0.8-30.4-2.4
			c-1.1-0.4-1.6-0.9-1.6-2.2c0-29,0-57.9,0-86.9C524,46,524.1,45.6,524.1,45.1z M529.8,115.1c0.1,0,0.2,0,0.2,0
			c0,4.6,0.1,9.2,0,13.7c0,1.4,0.5,2,1.8,2.3c6.7,1.9,13.5,2.3,20.4,1.6c11.8-1.3,20-8.5,22.6-20.1c1.4-6.4,0.9-12.8-0.9-19.2
			c-3.8-13.1-15.3-17.8-26.7-14.8c-9.7,2.6-14.9,10-16.5,19.5C529.8,103.7,530.1,109.4,529.8,115.1z"/>
		<path fill="#FFFFFF" d="M508.3,107.1c-18.6,0-36.5,0-54.4,0c-0.6,6.4,3,17.8,12.7,22.7c12.6,6.4,23.9,3.2,34.3-5.6
			c0,0,0.2,0.1,0.4,0.2c1.2,1,2.5,2.1,3.8,3.2c-3.6,4.6-8.4,7.4-13.9,9.2c-10,3.2-19.8,2.8-29-2.4c-8.3-4.7-12.9-12.2-14.6-21.5
			c-1.8-9.6-0.5-18.8,4.9-27.1c7-10.8,17.2-15.2,29.8-13.5c12.9,1.7,20.7,9.6,24.1,21.9C507.3,98.2,507.6,102.5,508.3,107.1z
			 M500.9,101.5c-0.8-13-8.3-22.9-21.5-23.7c-14.1-0.8-24.6,8.9-25.5,23.7C469.6,101.5,485.3,101.5,500.9,101.5z"/>
		<path fill="#FFFFFF" d="M641.1,99c-0.3-3.2-0.4-6.5-0.9-9.6c-1.1-6.3-5.1-10.1-11.3-11c-11.8-1.8-18.5-0.4-27.1,5.9
			c-1.1-1.4-2.1-2.7-3.3-4.2c4.2-3.4,8.8-6,14.1-7c7.2-1.5,14.5-1.4,21.5,1c8.3,2.8,12.7,9.2,12.8,18.8c0.2,10.4,0.1,20.9,0.1,31.3
			c0,4.3,0,8.6,0,13.1c-1.6,0-3.5,0-5.7,0c0-3.3,0-6.6,0-9.9c-2.5,2.3-4.5,4.6-7,6.4c-8.7,6.2-18.4,6.8-28.3,3.5
			c-7.5-2.5-11.5-9.4-11-17.8c0.7-11.9,7.6-19.1,20-20.7c4.3-0.5,8.6-0.5,12.9-0.5C632.2,98.1,636.4,98.6,641.1,99z M641,110.4
			c0-1.4-0.1-2.8,0-4.2c0.1-1.2-0.3-1.6-1.5-1.8c-7.3-1.4-14.6-1.7-21.9-1c-7.2,0.7-14.5,4.2-15.7,13.5c-0.9,6.9,1.3,12.2,7,14.6
			C624.6,137.9,642.9,126.1,641,110.4z"/>
		<path fill="#FFFFFF" d="M666.2,73.7c1.7,0,3.5,0,5.6,0c0,4.1,0,8.3,0,12.7c2.4-2.8,4.3-5.4,6.6-7.6c5.3-5.1,11.9-7.1,19.2-6.9
			c5.4,0.1,10.5,1,14.9,4.3c5.2,3.9,7.3,9.5,8.1,15.7c0.4,3.1,0.5,6.2,0.5,9.3c0.1,11.1,0,22.2,0,33.3c0,0.8,0,1.6,0,2.5
			c-2.1,0-4,0-6.2,0c0-0.7,0-1.4,0-2.1c0-11.1,0.1-22.2-0.1-33.3c0-3.6-0.4-7.3-1.1-10.8c-1.9-8.7-7.1-12.6-16-13.1
			c-14.2-0.8-22.7,9.5-24.8,21.1c-0.4,2.2-0.5,4.4-0.5,6.6c-0.1,9.8,0,19.5,0,29.3c0,0.7,0,1.5,0,2.3c-2.1,0-4,0-6.2,0
			C666.2,116.1,666.2,95,666.2,73.7z"/>
		<path fill="#FFFFFF" d="M334.9,73.7c2.1,0,4,0,6.1,0c0,21.1,0,42.1,0,63.3c-1.6,0-3.4,0-5.6,0c0-4,0-8.1,0-12.2
			c-0.2-0.1-0.4-0.1-0.6-0.2c-0.3,0.4-0.6,0.8-0.9,1.3c-8.1,13.2-22.5,15.2-34.1,11c-7.7-2.8-11.1-9.2-12.2-16.9
			c-0.5-3.3-0.7-6.7-0.7-10.1c-0.1-11.4,0-22.8,0-34.2c0-0.7,0.1-1.3,0.1-2.1c2,0,4,0,6.2,0c0,0.8,0,1.6,0,2.4
			c0,11.8,0,23.6,0.1,35.4c0,3,0.4,6.1,1.1,9c2,8.5,6.7,12.1,15.9,12.5c11.1,0.6,20.4-6.4,23.4-18c0.8-3.1,1.2-6.4,1.2-9.6
			c0.2-9.8,0.1-19.5,0.1-29.3C334.9,75.5,334.9,74.7,334.9,73.7z"/>
		<path fill="#FFFFFF" d="M431,81.7c-1.5,1.4-2.8,2.6-3.8,3.5c-3.4-2.1-6.3-4.6-9.7-5.9c-6.6-2.6-13.5-2.4-20,0.5
			c-4.1,1.8-6,5.2-5.9,9.7c0,4.7,3.1,7.3,6.9,8.8c4.7,1.8,9.7,2.7,14.5,4.2c4.1,1.3,8.2,2.5,12.1,4.3c11.3,5.2,11.1,20,1.9,26.6
			c-4.3,3.1-9.1,4.7-14.2,5.2c-9.9,1-19.2-0.6-27.3-6.8c-1-0.8-1.9-1.6-3.1-2.6c1.3-1.5,2.6-2.8,3.7-4.1c3,1.9,5.7,4.1,8.8,5.4
			c8.5,3.5,17.2,3.6,25.7-0.1c3.8-1.7,6.2-4.6,6.3-9c0.1-4.6-1.8-8.2-6.1-9.7c-5.3-1.9-10.8-3.1-16.2-4.8c-3.6-1.1-7.3-2-10.7-3.6
			c-11.3-5.2-11.4-20.7-1.4-27.1c4.8-3.1,10-4,15.6-4.1C417,71.8,424.6,74.8,431,81.7z"/>
		<path fill="#FFFFFF" d="M366.7,137.1c-2,0-3.9,0-5.9,0c0-30.7,0-61.3,0-92c1.9,0,3.8,0,5.9,0C366.7,75.7,366.7,106.3,366.7,137.1z
			"/>
	</g>
	<path fill="#FFFFFF" d="M91.1,112.7l4.8-9.4l9.1,44.5c0.5,2.5,2.7,4.2,5.2,4.1c2.5-0.1,4.6-1.9,5-4.4l8.7-56.7l7.7,38.9
		c0.5,2.4,2.6,4.2,5.1,4.2c0,0,0,0,0,0c2.5,0,4.6-1.7,5.1-4.1l6.5-31.5l3.3,4c1,1.2,2.4,1.9,4,1.9l28.3,0.1c0.4,0.1,0.9,0.2,1.3,0.2
		c2.9,0,5.2-2.3,5.2-5.2c0-37.3-30.4-67.7-67.7-67.7c-29.8,0-56.5,19.9-64.9,48.4c-0.8,2.7,0.8,5.6,3.5,6.4c2.7,0.8,5.6-0.8,6.4-3.5
		c7.1-24.2,29.8-41,55-41c29.8,0,54.3,22.8,57.1,51.9L158,93.8l-8.6-10.5c-1.3-1.5-3.3-2.2-5.2-1.7c-1.9,0.5-3.4,2-3.8,4l-3.5,17
		l-8.5-42.7c-0.5-2.4-2.6-4.2-5.1-4.2c0,0-0.1,0-0.1,0c-2.5,0.1-4.6,1.9-5,4.4l-8.8,57.3l-6.3-30.6c-0.4-2.2-2.2-3.8-4.4-4.1
		c-2.2-0.3-4.3,0.8-5.3,2.8l-10.1,19.7H60.2c-2.8,0-5.1,2.3-5.2,5.2c0,0,0,0.1,0,0.1c0,37.3,30.4,67.7,67.7,67.7
		c30,0,56.7-20.1,65-48.9c0.8-2.7-0.8-5.6-3.5-6.4c-2.7-0.8-5.6,0.8-6.4,3.5c-7,24.4-29.7,41.4-55.1,41.4c-29.9,0-54.5-23-57.1-52.3
		h20.9C88.4,115.5,90.2,114.4,91.1,112.7z"/>
</g>
</svg>
